/* XPM */
static char *_5498_resized[] = {
/* columns rows colors chars-per-pixel */
"64 64 238 2 ",
"   c #CF9435",
".  c #D09535",
"X  c #D19535",
"o  c #D19634",
"O  c #D19734",
"+  c #D19635",
"@  c #D29734",
"#  c #D29834",
"$  c #D39934",
"%  c #D39A34",
"&  c #D49B34",
"*  c #D49C34",
"=  c #D59C34",
"-  c #D69E34",
";  c #D69F34",
":  c #D7A033",
">  c #D7A034",
",  c #D8A133",
"<  c #D8A233",
"1  c #D9A333",
"2  c #DAA533",
"3  c #DBA633",
"4  c #DCA733",
"5  c #DDA933",
"6  c #DEAB32",
"7  c #DEAA33",
"8  c #DEAC32",
"9  c #E0AE32",
"0  c #E1AF32",
"q  c #E1B032",
"w  c #E4B431",
"e  c #E5B631",
"r  c #E4B432",
"t  c #E7B632",
"y  c #E6B831",
"u  c #E7B831",
"i  c #E7B931",
"p  c #E8BA31",
"a  c #EBBB30",
"s  c #EBBB31",
"d  c #E9BC31",
"f  c #E9BD31",
"g  c #EBBC31",
"h  c #EABD31",
"j  c #EBBE30",
"k  c #EBBF30",
"l  c #ECBC31",
"z  c #ECBD31",
"x  c #ECBE31",
"c  c #EDBE31",
"v  c #EDBF31",
"b  c #ECBC32",
"n  c #EDBF32",
"m  c #F3CA2A",
"M  c #F3CA2B",
"N  c #F3CB2B",
"B  c #F2C82C",
"V  c #F3CB2C",
"C  c #F3CB2D",
"Z  c #F1C82F",
"A  c #F1C92F",
"S  c #F2C92F",
"D  c #F3CB2E",
"F  c #F2CA2F",
"G  c #F2CB2F",
"H  c #F3CB2F",
"J  c #F3CC2D",
"K  c #F3CC2E",
"L  c #F3CD2E",
"P  c #F3CC2F",
"I  c #F3CD2F",
"U  c #F4CC2F",
"Y  c #F4CD2F",
"T  c #F4CE2F",
"R  c #F5CE2F",
"E  c #F5CF2F",
"W  c #F4D427",
"Q  c #F4D428",
"!  c #F4D429",
"~  c #F4D42A",
"^  c #F5D02F",
"/  c #F6D12E",
"(  c #F6D02F",
")  c #F6D12F",
"_  c #F6D22E",
"`  c #F7D22E",
"'  c #F7D32E",
"]  c #F5D52D",
"[  c #F4D52E",
"{  c #F5D52E",
"}  c #F4D52F",
"|  c #F5D52F",
" . c #ECC030",
".. c #ECC130",
"X. c #EDC031",
"o. c #EEC130",
"O. c #ECC230",
"+. c #EDC230",
"@. c #EEC230",
"#. c #EFC330",
"$. c #EDC032",
"%. c #EEC232",
"&. c #EEC332",
"*. c #EEC430",
"=. c #EFC430",
"-. c #EFC530",
";. c #EFC630",
":. c #EFC533",
">. c #EFC334",
",. c #EDC036",
"<. c #F0C530",
"1. c #F0C630",
"2. c #F0C830",
"3. c #F2CA30",
"4. c #F2CB30",
"5. c #F2CA31",
"6. c #F1C832",
"7. c #F3CC30",
"8. c #F3CC31",
"9. c #F3CC32",
"0. c #F3CD33",
"q. c #F4CE31",
"w. c #F4CF31",
"e. c #F1CC34",
"r. c #F3CD34",
"t. c #F2CD35",
"y. c #F3CE34",
"u. c #F2CE35",
"i. c #F2CF36",
"p. c #F3CF36",
"a. c #F4CE35",
"s. c #F4CF39",
"d. c #F4CF3A",
"f. c #F0C83F",
"g. c #F5D631",
"h. c #F5D632",
"j. c #F5D732",
"k. c #F5D633",
"l. c #F3D035",
"z. c #F3D135",
"x. c #F3D236",
"c. c #F3D237",
"v. c #F4D234",
"b. c #F4D334",
"n. c #F4D335",
"m. c #F4D336",
"M. c #F4D337",
"N. c #F5D435",
"B. c #F5D735",
"V. c #F4D436",
"C. c #F5D436",
"Z. c #F5D537",
"A. c #F5D636",
"S. c #F5D835",
"D. c #F5D837",
"F. c #F6D937",
"G. c #F4D03A",
"H. c #F4D03B",
"J. c #F5D638",
"K. c #F5D738",
"L. c #F5D639",
"P. c #F5D739",
"I. c #F4D03D",
"U. c #F4D13D",
"Y. c #F5D838",
"T. c #F6D939",
"R. c #F5D83A",
"E. c #F5D83B",
"W. c #F5D93B",
"Q. c #F6D93B",
"!. c #F6DA3B",
"~. c #F5D83C",
"^. c #F5D83F",
"/. c #F5D93F",
"(. c #F4D140",
"). c #F5D241",
"_. c #F5D242",
"`. c #F5D342",
"'. c #F5D243",
"]. c #F5D344",
"[. c #F5D345",
"{. c #F5D346",
"}. c #F5D447",
"|. c #F6DA44",
" X c #F4D148",
".X c #F5D448",
"XX c #F5D449",
"oX c #F5D54A",
"OX c #F5D54B",
"+X c #F6D64A",
"@X c #F5D54C",
"#X c #F5D54D",
"$X c #F6D64D",
"%X c #F6D64E",
"&X c #F6D64F",
"*X c #F6DA48",
"=X c #F6DB48",
"-X c #F6DB4C",
";X c #F6D650",
":X c #F6D750",
">X c #F6D751",
",X c #F6D752",
"<X c #F6D753",
"1X c #F6DC50",
"2X c #F6D856",
"3X c #F6D957",
"4X c #F6D958",
"5X c #F6D959",
"6X c #F7D959",
"7X c #F7DA59",
"8X c #F7DA5B",
"9X c #F7DA5C",
"0X c #F7DB5D",
"qX c #F7DB5E",
"wX c #F7DB5F",
"eX c #F7DC62",
"rX c #F7DD63",
"tX c #F7DD64",
"yX c #F8DD65",
"uX c #F7E066",
"iX c #F8E16A",
"pX c #F8E16B",
"aX c #FAE991",
"sX c #FAEB9D",
"dX c #FBEEAB",
"fX c #FCF4C9",
"gX c #FDF8DE",
"hX c #FDF8DF",
"jX c #FEF9E3",
"kX c #FEFBEB",
"lX c #FEFCF0",
"zX c #FEFCF2",
"xX c #FFFEF8",
"cX c #FFFEFB",
"vX c #FFFEFC",
"bX c #FFFFFD",
"nX c #FFFFFE",
"mX c #FFFFFF",
/* pixels */
"mXmXmXmXmXmXmXmXmXmXmXmXmXmXmXmXmXmXmXmXmXmXmXmXmXmXmXmXmXmXmXmXmXmXmXmXmXmXmXmXmXmXmXmXmXmXmXmXmXmXmXmXmXmXmXmXmXmXmXmXmXmXmXmX",
"mXmXmXmXmXmXmXmXmXmXmXmXmXmXmXmXmXmXmXmXmXmXmXmXmXmXmXmXmXmXmXmXmXmXmXmXmXmXmXmXmXmXmXmXmXmXmXmXmXmXmXmXmXmXmXmXmXmXmXmXmXmXmXmX",
"mXmXmXmXmXmXmXmXmXmXmXmXmXmXmXmXmXmXmXmXmXmXmXmXmXmXmXmXmXmXmXmXmXmXmXmXmXmXmXmXmXmXmXmXmXmXmXmXmXmXmXmXmXmXmXmXmXmXmXmXmXmXmXmX",
"mXmXmXmXmXmXmXmXmXmXmXmXmXmXmXmXmXmXmXmXmXmXmXmXmXmXmXmXmXmXmXmXmXmXmXmXmXmXmXmXmXmXmXmXmXmXmXmXmXmXmXmXmXmXmXmXmXmXmXmXmXmXmXmX",
"mXmXmXmXmXmXmXmXmXmXmXmXmXmXmXmXmXmXmXmXmXmXmXmXmXmXmXmXmXmXmXmXmXmXmXmXmXmXmXmXmXmXmXmXmXmXmXmXmXmXmXmXmXmXmXmXmXmXmXmXmXmXmXmX",
"mXmXmXmXmXmXmXmXmXmXmXmXmXmXmXmXmXmXmXmXmXmXmXmXmXmXmXmXmXmXmXmXmXmXmXmXmXmXmXmXmXmXmXmXmXmXmXmXmXmXmXmXmXmXmXmXmXmXmXmXmXmXmXmX",
"mXmXmXmXmXmXmXmXmXmXmXmXmXmXmXmXmXmXmXmXmXmXmXmXmXmXmXmXmXmXmXmXmXmXmXmXmXmXmXmXmXmXmXmXmXmXmXmXmXmXmXmXmXmXmXmXmXmXmXmXmXmXmXmX",
"mXmXmXmXmXmXmXmXmXmXmXmXmXmXmXmXmXmXmXmXmXmXmXmXmXmXmXmXmXmXmXmXmXmXmXmXmXmXmXmXmXmXmXmXmXmXmXmXmXmXmXmXmXmXmXmXmXmXmXmXmXmXmXmX",
"mXmXmXmXmXmXmXmXmXmXmXmXmXmXmXmXmXmXmXmXmXmXmXmXmXmXmXmXmXmXmXmXmXmXmXmXmXmXmXmXmXmXmXmXmXmXmXmXmXmXmXmXmXmXmXmXmXmXmXmXmXmXmXmX",
"mXmXmXmXmXmXmXmXmXmXmXmXmXmXmXmXmXmXmXmXmXmXmXmXmXmXmXmXmXmXmXmXmXmXmXmXmXmXmXmXmXmXmXmXmXmXmXmXmXmXmXmXmXmXmXmXmXmXmXmXmXmXmXmX",
"mXmXmXmXmXmXmXmXmXmXmXmXmXmXmXmXmXmXmXmXmXmXmXmXmXmXmXmXmXmXmXmXmXmXmXmXmXmXmXmXmXmXmXmXmXmXmXmXmXmXmXmXmXmXmXmXmXmXmXmXmXmXmXmX",
"mXmXmXmXmXmXmXmXmXmXmXmXmXmXmXmXmXmXmXmXmXmXmXmXmXmXmXmXmXnXnXnXnXnXnXmXmXmXmXmXmXmXmXmXmXmXmXmXmXmXmXmXmXmXmXmXmXmXmXmXmXmXmXmX",
"mXmXmXmXmXmXmXmXmXmXmXmXmXmXmXmXmXmXmXmXmXmXmXmXmXnXbXvXnXmXmXmXmXmXmXnXvXbXnXmXmXmXmXmXmXmXmXmXmXmXmXmXmXmXmXmXmXmXmXmXmXmXmXmX",
"mXmXmXmXmXmXmXmXmXmXmXmXmXmXmXmXmXmXmXmXmXmXmXnXvXmXmXmXmXxXkXjXjXkXxXmXmXmXmXvXnXmXmXmXmXmXmXmXmXmXmXmXmXmXmXmXmXmXmXmXmXmXmXmX",
"mXmXmXmXmXmXmXmXmXmXmXmXmXmXmXmXmXmXmXmXmXmXvXmXmXcXfXaXuX-X^.P.P.^.-XuXaXfXcXmXmXvXmXmXmXmXmXmXmXmXmXmXmXmXmXmXmXmXmXmXmXmXmXmX",
"mXmXmXmXmXmXmXmXmXmXmXmXmXmXmXmXmXmXmXmXbXnXmXzXsX1X{ ! ] h.B.D.D.B.h.] ! { 1XsXzXmXnXbXmXmXmXmXmXmXmXmXmXmXmXmXmXmXmXmXmXmXmXmX",
"mXmXmXmXmXmXmXmXmXmXmXmXmXmXmXmXmXmXmXvXmXmXdX|.Q g.R.E.P.Z.C.n.n.C.Z.P.E.R.g.Q |.dXmXmXvXmXmXmXmXmXmXmXmXmXmXmXmXmXmXmXmXmXmXmX",
"mXmXmXmXmXmXmXmXmXmXmXmXmXmXmXmXmXmXvXmXlXpXW k.W.K.n.w.J N M M M M N K w.n.K.W.k.W iXlXmXvXmXmXmXmXmXmXmXmXmXmXmXmXmXmXmXmXmXmX",
"mXmXmXmXmXmXmXmXmXmXmXmXmXmXmXmXmXvXmXgX*X~ E.K.b.L M 7.d.].@X:X:X@X].s.D m I b.K.W.~ =XhXmXvXmXmXmXmXmXmXmXmXmXmXmXmXmXmXmXmXmX",
"mXmXmXmXmXmXmXmXmXmXmXmXmXmXmXmXvXmXgX/.| ~.A.q.M r.XX8XrXtXwX8X5X6X9XqX7X.X8.M 6.x.!.} /.hXmXvXmXmXmXmXmXmXmXmXmXmXmXmXmXmXmXmX",
"mXmXmXmXmXmXmXmXmXmXmXmXmXmXmXbXmXlX*X| E.N.K C [.qXyX8XXXH.0.P K K 7.a.(.>X4X`.B c l.Q.} =XlXmXbXmXmXmXmXmXmXmXmXmXmXmXmXmXmXmX",
"mXmXmXmXmXmXmXmXmXmXmXmXmXmXmXnXmXpX~ ~.N.C 8.,XyX9X'.8.V V K H G P P K V N a.#X+X@.a l.!.~ iXmXnXmXmXmXmXmXmXmXmXmXmXmXmXmXmXmX",
"mXmXmXmXmXmXmXmXmXmXmXmXmXmXvXmXdXW E.A.K 8.2XyX>X0.N P 7.4.R y * ..T H 7.7.K M U. Xb z m.W.W dXmXvXmXmXmXmXmXmXmXmXmXmXmXmXmXmX",
"mXmXmXmXmXmXmXmXmXmXmXmXmXnXmXzX|.k.K.q.D ,XyXOXC K 7.P P P ' r   j ` P P P P 7.N a.f.a %.Y.k.|.zXmXnXmXmXmXmXmXmXmXmXmXmXmXmXmX",
"mXmXmXmXmXmXmXmXmXmXmXmXmXvXmXsXQ W.b.M {.yX$XV P 7.P P T Z 0 ; & > 0 A T P P P 7.J >.,.a e.!.Q sXmXvXmXmXmXmXmXmXmXmXmXmXmXmXmX",
"mXmXmXmXmXmXmXmXmXmXmXmXnXmXcX1Xg.K.L r.wX3XP P P P P Y 2., X # & @ o 2 A I P P P Y @.l z $.J.g.1XcXmXnXmXmXmXmXmXmXmXmXmXmXmXmX",
"mXmXmXmXmXmXmXmXmXmXmXmXbXmXfX{ R.n.M oXrXs.V 7.P P H E 9 + , h ;.e & X i E H P P I =.g x s t.T.[ fXmXbXmXmXmXmXmXmXmXmXmXmXmXmX",
"mXmXmXmXmXmXmXmXmXmXmXmXvXmXaX! E.w.7.0X;XV 7.P P P P P 1 o i _ I ) i f Y P P P P Y =.g x s :.Q.! aXmXvXmXmXmXmXmXmXmXmXmXmXmXmX",
"mXmXmXmXmXmXmXmXmXmXmXmXnXmXuX] P.J H.eXG.V 7.P P P P P 1 o e _ H F R E P P P P P I #.l z l n L.] uXmXnXmXmXmXmXmXmXmXmXmXmXmXmX",
"mXmXmXmXmXmXmXmXmXmXmXnXmXxX-Xh.Z.N }.8XP P P P P P H E 0 o - y P E P G P P P P P I o.l z z l c.j.-XxXmXnXmXmXmXmXmXmXmXmXmXmXmX",
"mXmXmXmXmXmXmXmXmXmXmXnXmXkX^.B.C.M &X:XN 7.P P P P P Y Z < o # 1 u P R H P P P P P v l z z l i.S.^.kXmXnXmXmXmXmXmXmXmXmXmXmXmX",
"mXmXmXmXmXmXmXmXmXmXmXnXmXjXP.D.n.M <X}.N 7.P P P P P P T A 9 = o @ 1 +.R H P P I S z z z z s u.F.P.jXmXnXmXmXmXmXmXmXmXmXmXmXmX",
"mXmXmXmXmXmXmXmXmXmXmXnXmXjXP.D.n.M ,X'.N 7.P P P P P P H I E -.0 & @ = *.T P P Y <.g z z z s u.F.P.jXmXnXmXmXmXmXmXmXmXmXmXmXmX",
"mXmXmXmXmXmXmXmXmXmXmXnXmXkX^.B.C.M %X_.N 7.P P P P P P I P H T ^ O.: O 7 E H P P v l z z z l i.S.^.kXmXnXmXmXmXmXmXmXmXmXmXmXmX",
"mXmXmXmXmXmXmXmXmXmXmXnXmXxX-Xh.Z.M }.].N 7.P P P P P R F H P P F / y O , F P I 1.l z z z z z c.j.-XxXmXnXmXmXmXmXmXmXmXmXmXmXmX",
"mXmXmXmXmXmXmXmXmXmXmXmXnXmXuX] P.J I.}.N 7.P P P P P 9 = i ^ F F R f O > A Y G c z z z z l n L.] uXmXnXmXmXmXmXmXmXmXmXmXmXmXmX",
"mXmXmXmXmXmXmXmXmXmXmXmXvXmXaX! E.w.9..XK P P P P H E 5 . 1 P ^ E ^ 8 o 3 Y I o.l z z z z s :.Q.! aXmXvXmXmXmXmXmXmXmXmXmXmXmXmX",
"mXmXmXmXmXmXmXmXmXmXmXmXbXmXfX{ R.n.V ).y.K P P P H R ..$ $ 4 d h 6 % O p ( #.l z z z z x s u.T.[ fXmXbXmXmXmXmXmXmXmXmXmXmXmXmX",
"mXmXmXmXmXmXmXmXmXmXmXmXnXmXcX1Xg.K.L r.G.C P P P P H R r # + O # O O q E =.l z z z z z l $.J.g.1XcXmXnXmXmXmXmXmXmXmXmXmXmXmXmX",
"mXmXmXmXmXmXmXmXmXmXmXmXmXvXmXsXQ W.v.K a.7.P P P P P P R k 6 > & 2 d Y @.g z z z z z x s e.!.Q sXmXvXmXmXmXmXmXmXmXmXmXmXmXmXmX",
"mXmXmXmXmXmXmXmXmXmXmXmXmXnXmXzX|.k.Y.5.F T I P P P P P H T ' w    .U z g z z z z z x g &.Y.k.|.zXmXnXmXmXmXmXmXmXmXmXmXmXmXmXmX",
"mXmXmXmXmXmXmXmXmXmXmXmXmXmXvXmXdXW W.m.v =.3.P I Y Y Y Y P R e & t z l z z z z z z l x V.W.W dXmXvXmXmXmXmXmXmXmXmXmXmXmXmXmXmX",
"mXmXmXmXmXmXmXmXmXmXmXmXmXmXmXnXmXiX~ !.l.g l X.@.=.<.<.=.@.X.z g l z z z z z z x l z z.!.~ iXmXnXmXmXmXmXmXmXmXmXmXmXmXmXmXmXmX",
"mXmXmXmXmXmXmXmXmXmXmXmXmXmXmXbXmXlX=X} Q.z.x s b l g g g l l z z z z z z z z x g x z.Q.} =XlXmXbXmXmXmXmXmXmXmXmXmXmXmXmXmXmXmX",
"mXmXmXmXmXmXmXmXmXmXmXmXmXmXmXmXvXmXhX/.} !.V.&.s l x x z z z z z z z z z x l s &.V.!.} /.gXmXvXmXmXmXmXmXmXmXmXmXmXmXmXmXmXmXmX",
"mXmXmXmXmXmXmXmXmXmXmXmXmXmXmXmXmXvXmXhX=X~ W.Y.e.$.s s l z z z z z z l s s $.e.Y.W.~ =XgXmXvXmXmXmXmXmXmXmXmXmXmXmXmXmXmXmXmXmX",
"mXmXmXmXmXmXmXmXmXmXmXmXmXmXmXmXmXmXvXmXlXiXW k.!.J.u.:.n z l s s l z n :.u.J.!.k.W iXlXmXvXmXmXmXmXmXmXmXmXmXmXmXmXmXmXmXmXmXmX",
"mXmXmXmXmXmXmXmXmXmXmXmXmXmXmXmXmXmXmXvXmXmXdX|.Q g.T.Q.L.M.p.u.u.p.M.L.Q.T.g.Q |.dXmXmXvXmXmXmXmXmXmXmXmXmXmXmXmXmXmXmXmXmXmXmX",
"mXmXmXmXmXmXmXmXmXmXmXmXmXmXmXmXmXmXmXmXbXnXmXzXsX1X[ ! ] j.S.F.F.S.j.] ! [ 1XsXzXmXnXbXmXmXmXmXmXmXmXmXmXmXmXmXmXmXmXmXmXmXmXmX",
"mXmXmXmXmXmXmXmXmXmXmXmXmXmXmXmXmXmXmXmXmXmXvXmXmXcXfXaXuX-X^.P.P.^.-XuXaXfXcXmXmXvXmXmXmXmXmXmXmXmXmXmXmXmXmXmXmXmXmXmXmXmXmXmX",
"mXmXmXmXmXmXmXmXmXmXmXmXmXmXmXmXmXmXmXmXmXmXmXnXvXmXmXmXmXxXkXjXjXkXxXmXmXmXmXvXnXmXmXmXmXmXmXmXmXmXmXmXmXmXmXmXmXmXmXmXmXmXmXmX",
"mXmXmXmXmXmXmXmXmXmXmXmXmXmXmXmXmXmXmXmXmXmXmXmXmXnXbXvXnXmXmXmXmXmXmXnXvXbXnXmXmXmXmXmXmXmXmXmXmXmXmXmXmXmXmXmXmXmXmXmXmXmXmXmX",
"mXmXmXmXmXmXmXmXmXmXmXmXmXmXmXmXmXmXmXmXmXmXmXmXmXmXmXmXmXnXnXnXnXnXnXmXmXmXmXmXmXmXmXmXmXmXmXmXmXmXmXmXmXmXmXmXmXmXmXmXmXmXmXmX",
"mXmXmXmXmXmXmXmXmXmXmXmXmXmXmXmXmXmXmXmXmXmXmXmXmXmXmXmXmXmXmXmXmXmXmXmXmXmXmXmXmXmXmXmXmXmXmXmXmXmXmXmXmXmXmXmXmXmXmXmXmXmXmXmX",
"mXmXmXmXmXmXmXmXmXmXmXmXmXmXmXmXmXmXmXmXmXmXmXmXmXmXmXmXmXmXmXmXmXmXmXmXmXmXmXmXmXmXmXmXmXmXmXmXmXmXmXmXmXmXmXmXmXmXmXmXmXmXmXmX",
"mXmXmXmXmXmXmXmXmXmXmXmXmXmXmXmXmXmXmXmXmXmXmXmXmXmXmXmXmXmXmXmXmXmXmXmXmXmXmXmXmXmXmXmXmXmXmXmXmXmXmXmXmXmXmXmXmXmXmXmXmXmXmXmX",
"mXmXmXmXmXmXmXmXmXmXmXmXmXmXmXmXmXmXmXmXmXmXmXmXmXmXmXmXmXmXmXmXmXmXmXmXmXmXmXmXmXmXmXmXmXmXmXmXmXmXmXmXmXmXmXmXmXmXmXmXmXmXmXmX",
"mXmXmXmXmXmXmXmXmXmXmXmXmXmXmXmXmXmXmXmXmXmXmXmXmXmXmXmXmXmXmXmXmXmXmXmXmXmXmXmXmXmXmXmXmXmXmXmXmXmXmXmXmXmXmXmXmXmXmXmXmXmXmXmX",
"mXmXmXmXmXmXmXmXmXmXmXmXmXmXmXmXmXmXmXmXmXmXmXmXmXmXmXmXmXmXmXmXmXmXmXmXmXmXmXmXmXmXmXmXmXmXmXmXmXmXmXmXmXmXmXmXmXmXmXmXmXmXmXmX",
"mXmXmXmXmXmXmXmXmXmXmXmXmXmXmXmXmXmXmXmXmXmXmXmXmXmXmXmXmXmXmXmXmXmXmXmXmXmXmXmXmXmXmXmXmXmXmXmXmXmXmXmXmXmXmXmXmXmXmXmXmXmXmXmX",
"mXmXmXmXmXmXmXmXmXmXmXmXmXmXmXmXmXmXmXmXmXmXmXmXmXmXmXmXmXmXmXmXmXmXmXmXmXmXmXmXmXmXmXmXmXmXmXmXmXmXmXmXmXmXmXmXmXmXmXmXmXmXmXmX",
"mXmXmXmXmXmXmXmXmXmXmXmXmXmXmXmXmXmXmXmXmXmXmXmXmXmXmXmXmXmXmXmXmXmXmXmXmXmXmXmXmXmXmXmXmXmXmXmXmXmXmXmXmXmXmXmXmXmXmXmXmXmXmXmX",
"mXmXmXmXmXmXmXmXmXmXmXmXmXmXmXmXmXmXmXmXmXmXmXmXmXmXmXmXmXmXmXmXmXmXmXmXmXmXmXmXmXmXmXmXmXmXmXmXmXmXmXmXmXmXmXmXmXmXmXmXmXmXmXmX",
"mXmXmXmXmXmXmXmXmXmXmXmXmXmXmXmXmXmXmXmXmXmXmXmXmXmXmXmXmXmXmXmXmXmXmXmXmXmXmXmXmXmXmXmXmXmXmXmXmXmXmXmXmXmXmXmXmXmXmXmXmXmXmXmX"
};
