/* XPM */
static char *akhir_resized[] = {
/* columns rows colors chars-per-pixel */
"64 64 147 2 ",
"   c #1E1C1D",
".  c #231511",
"X  c #241815",
"o  c #2B1913",
"O  c #231C1B",
"+  c #2A1E1B",
"@  c #351E17",
"#  c #381E16",
"$  c #371F18",
"%  c #2C201D",
"&  c #3A2017",
"*  c #36211A",
"=  c #3C241C",
"-  c #252425",
";  c #2A2423",
":  c #2A2728",
">  c #2C2A2B",
",  c #3D2924",
"<  c #302D2F",
"1  c #3B2F2D",
"2  c #3E302D",
"3  c #312F30",
"4  c #343334",
"5  c #373638",
"6  c #393739",
"7  c #3C3B3B",
"8  c #41271E",
"9  c #432A22",
"0  c #4A2E25",
"q  c #402E29",
"w  c #502D22",
"e  c #49312A",
"r  c #563227",
"t  c #53342A",
"y  c #5D382C",
"u  c #4F3D37",
"i  c #423C3B",
"p  c #5F3C31",
"a  c #643F33",
"s  c #764D26",
"d  c #764D2C",
"f  c #7C532E",
"g  c #654034",
"h  c #6B4539",
"j  c #734C33",
"k  c #734B3E",
"l  c #7A5238",
"z  c #403F40",
"x  c #444344",
"c  c #494749",
"v  c #4B4A4B",
"b  c #5C4D4B",
"n  c #514F51",
"m  c #545354",
"M  c #595254",
"N  c #585758",
"B  c #5C5B5C",
"V  c #754D41",
"C  c #67504B",
"Z  c #745046",
"A  c #795144",
"S  c #79554A",
"D  c #605453",
"F  c #6D5956",
"G  c #6B5E5C",
"H  c #715650",
"J  c #7C5C54",
"K  c #725D58",
"L  c #7A5F58",
"P  c #74625F",
"I  c #7D615B",
"U  c #605D60",
"Y  c #646364",
"T  c #686767",
"R  c #696769",
"E  c #6C6B6C",
"W  c #7A6560",
"Q  c #706E6F",
"!  c #706F70",
"~  c #747374",
"^  c #797779",
"/  c #7C7B7C",
"(  c #865C3E",
")  c #8E623B",
"_  c #815843",
"`  c #805649",
"'  c #835A4C",
"]  c #865D51",
"[  c #895E51",
"{  c #8C6145",
"}  c #8B604A",
"|  c #916542",
" . c #936749",
".. c #9E704A",
"X. c #8E6355",
"o. c #84645B",
"O. c #8C6559",
"+. c #8B685E",
"@. c #906557",
"#. c #926658",
"$. c #966A5C",
"%. c #996C5E",
"&. c #9D7056",
"*. c #9E705B",
"=. c #816961",
"-. c #846E6A",
";. c #936C60",
":. c #9C6F61",
">. c #847264",
",. c #84746A",
"<. c #967065",
"1. c #9D7062",
"2. c #9F7568",
"3. c #837573",
"4. c #8B7B77",
"5. c #957C77",
"6. c #987B72",
"7. c #A37263",
"8. c #AA7564",
"9. c #AE7866",
"0. c #A2776B",
"q. c #A27A6E",
"w. c #807F80",
"e. c #848384",
"r. c #888688",
"t. c #8B8A8B",
"y. c #908F90",
"u. c #939393",
"i. c #999594",
"p. c #999799",
"a. c #9D9C9D",
"s. c #A7908B",
"d. c #A29B98",
"f. c #A19FA1",
"g. c #A4A4A4",
"h. c #A8A7A8",
"j. c #ACACAC",
"k. c #B0B0B0",
"l. c #BEBEBE",
"z. c #BFC0BF",
"x. c #C5C5C5",
"c. c #CBCBCB",
"v. c #D4D4D4",
"b. c #DDDDDD",
"n. c #E4E4E4",
"m. c #F4F4F4",
"M. c #FFFFFF",
/* pixels */
"M.M.M.M.M.M.M.M.M.M.M.M.M.M.M.M.M.M.M.M.M.M.M.M.M.M.M.M.M.M.M.M.M.M.M.M.M.M.M.M.M.M.M.M.M.M.M.M.M.M.M.M.M.M.M.M.M.M.M.M.M.M.M.M.",
"M.M.M.M.M.M.M.M.M.M.M.M.M.M.M.M.M.M.M.M.M.M.M.M.M.M.M.M.M.M.M.M.M.M.M.M.M.M.M.M.M.M.M.M.M.M.M.M.M.M.M.M.M.M.M.M.M.M.M.M.M.M.M.M.",
"M.M.M.M.M.M.M.M.M.M.M.M.M.M.M.M.M.M.M.M.M.M.M.M.M.M.M.M.M.m.m.m.m.m.m.m.m.M.M.M.M.M.M.M.M.M.M.M.M.M.M.M.M.M.M.M.M.M.M.M.M.M.M.M.",
"M.M.M.M.M.M.M.M.M.M.M.M.M.M.M.M.M.M.M.M.M.M.M.M.M.M.m.c.x.u.T Y m Y E E a.c.c.m.M.M.M.M.M.M.M.M.M.M.M.M.M.M.M.M.M.M.M.M.M.M.M.M.",
"M.M.M.M.M.M.M.M.M.M.M.M.M.M.M.M.M.M.M.M.M.M.M.M.m.x.e.! : n p.Q x / u.p.E - v r.x.m.M.M.M.M.M.M.M.M.M.M.M.M.M.M.M.M.M.M.M.M.M.M.",
"M.M.M.M.M.M.M.M.M.M.M.M.M.M.M.M.M.M.M.M.M.M.m.l.T ^ a.a.N - c 7 - 5 z z v > r.^ x ~ x.M.M.M.M.M.M.M.M.M.M.M.M.M.M.M.M.M.M.M.M.M.",
"M.M.M.M.M.M.M.M.M.M.M.M.M.M.M.M.M.M.M.M.M.c.w./ 7 t.e.N : . * * @ $ * * + > ! B c 4 B ^ v.M.M.M.M.M.M.M.M.M.M.M.M.M.M.M.M.M.M.M.",
"M.M.M.M.M.M.M.M.M.M.M.M.M.M.M.M.M.M.M.M.c./ a.h.x - 4 + t S #.[ h #.#.#.V = + 3 - E u.x B v.M.M.M.M.M.M.M.M.M.M.M.M.M.M.M.M.M.M.",
"M.M.M.M.M.M.M.M.M.M.M.M.M.M.M.M.M.M.M.c.x ~ e.N ; . 8 a $.:.1.#.V :.:.:.$.h V 0 X B R n 3 v v.M.M.M.M.M.M.M.M.M.M.M.M.M.M.M.M.M.",
"M.M.M.M.M.M.M.M.M.M.M.M.M.M.M.M.M.M.c./ ^ 4 i + t S ' A 1.:.1.#.V 7.9.:.$.k :.$.V $ + 3 : / r.v.M.M.M.M.M.M.M.M.M.M.M.M.M.M.M.M.",
"M.M.M.M.M.M.M.M.M.M.M.M.M.M.M.M.M.c.B ~ e.> o S $.1.X.A @.' 1.#.V 7.9.:.$.k :.:.#.h S $ U r.Q R v.M.M.M.M.M.M.M.M.M.M.M.M.M.M.M.",
"M.M.M.M.M.M.M.M.M.M.M.M.M.M.M.M.m.^ y.Q 5 , a #.1.1.X.A [ f *.#.V 7.9.:.$.k 8.7.#.V :.' 1 > 3 > ~ m.M.M.M.M.M.M.M.M.M.M.M.M.M.M.",
"M.M.M.M.M.M.M.M.M.M.M.M.M.M.M.M.k.N a.u.> t V @.1.1.X.A [ f &.#.V :.9.:.$.V 8.7.#.V :.$.0 - e.y.B x.M.M.M.M.M.M.M.M.M.M.M.M.M.M.",
"M.M.M.M.M.M.M.M.M.M.M.M.M.M.M.m.w.N 5 v 1 a k @.7.7.X.A [ f &.#.V :.9.:.#.V 1.:.O.V :.:.r i ~ ! z ~ m.M.M.M.M.M.M.M.M.M.M.M.M.M.",
"M.M.M.M.M.M.M.M.M.M.M.M.M.M.M.l.^ k.R > e [ V O.9.7.X.V O.( *.#.V :.:.:.$.h :.:.#.V :.$.a = 3 - x z x.M.M.M.M.M.M.M.M.M.M.M.M.M.",
"M.M.M.M.M.M.M.M.M.M.M.M.M.M.m.^ u.e.B + V 7.V #.8.1.X.A :.:.1.#.V :.:.:.$.V :.:.#.V :.$.V h % Y p.B ^ m.M.M.M.M.M.M.M.M.M.M.M.M.",
"M.M.M.M.M.M.M.M.M.M.M.M.M.M.l.x Y x O 9 $.:.V O.9.7.X.Z :.%.1.@.V :.:.:.$.k :.1.@.V :.$.V [ q x x 5 3 x.M.M.M.M.M.M.M.M.M.M.M.M.",
"M.M.M.M.M.M.M.M.M.M.M.M.M.M.j.B t.~ 5 0 :.:.V @.8.7.X.V 1.1.1.#.V :.$.S @.k %.1.@.A @.` k #.9 N w.E z z.M.M.M.M.M.M.M.M.M.M.M.M.",
"M.M.M.M.M.M.M.M.M.M.M.M.M.M.k.e.l.r.5 0 %.:.V @.1.1.[ A 1.:.1.#.V :.:.j | V $.1.@.V [ d j #.9 ! j.e.7 x.M.M.M.M.M.M.M.M.M.M.M.M.",
"M.M.M.M.M.M.M.M.M.M.M.M.M.M.k.m ^ v - 0 %.:.V @.:.:.X.A 1.:.1.@.k :.$.j | k :.1.@.V X.d j #.9 v ^ v > l.M.M.M.M.M.M.M.M.M.M.M.M.",
"M.M.M.M.M.M.M.M.M.M.M.M.M.M.k.x B N < e %.1.V @.1.1.X.Z 7.7.1.#.V :.$.j ) V %.:.@.A [ d j #.9 c E N 5 z.M.M.M.M.M.M.M.M.M.M.M.M.",
"M.M.M.M.M.M.M.M.M.M.M.M.M.M.k.E g.t.7 0 %.:.V @.1.1.X.V 7.8.1.O.V :.$.j { V %.1.@.V [ d j <.u / j.t.z z.M.M.M.M.M.M.M.M.M.M.M.M.",
"M.M.M.M.M.M.M.M.M.M.M.M.M.M.k.7 m 7   0 %.:.V @.1.1.X.A 7.8.1.#.V :.:.j | k $.:.O.V $.>.,.3.v z m 7 - z.M.M.M.M.M.M.M.M.M.M.M.M.",
"M.M.M.M.M.M.M.M.M.M.M.M.M.M.k.E p.e.i 0 %.:.V @.:.:.X.A 7.8.1.#.V :.$.j | V :.:.O.V W R E T 7 B B T c z.M.M.M.M.M.M.M.M.M.M.M.M.",
"M.M.M.M.M.M.M.M.M.M.M.M.M.M.k.E h.y.4 0 %.$.k @.1.1.X.A 7.8.1.#.V :.$.j | V $.:.@.k G B B U 7 n T e.7 l.M.M.M.M.M.M.M.M.M.M.M.M.",
"M.M.M.M.M.M.M.M.M.M.M.M.M.M.k.x Y c   0 #.k j #.1.1.X.V 7.8.1.#.V :.$.j | V :.7.@.V I F b D 5 > x c - l.M.M.M.M.M.M.M.M.M.M.M.M.",
"M.M.M.M.M.M.M.M.M.M.M.M.M.M.k.B e.! 6 0 #.j d @.:.:.X.V 7.8.1.@.V :.$.k X.V $.:.@.V *.%.V O., Y e.! z l.M.M.M.M.M.M.M.M.M.M.M.M.",
"M.M.M.M.M.M.M.M.M.M.M.M.M.M.k.^ k.i.6 0 #.j s @.%.&.X.A 7.7.1.#.V :.$.V X.V :.:.O.V 1.$.V #.9 ~ j.u.x l.M.M.M.M.M.M.M.M.M.M.M.M.",
"M.M.M.M.M.M.M.M.M.M.M.M.M.M.k.v w.N % e #.j d O.*...[ A :.:.:.#.V :.:.#.#.k $.7.@.k 1.%.k #.8 c ^ m > z.M.M.M.M.M.M.M.M.M.M.M.M.",
"M.M.M.M.M.M.M.M.M.M.M.M.M.M.k.5 4 n 4 0 $.} k @.*...X.A :.:.1.#.V :.:.:.$.k :.:.@.k 1.%.k #.9 v ^ U 7 z.M.M.M.M.M.M.M.M.M.M.M.M.",
"M.M.M.M.M.M.M.M.M.M.M.M.M.M.k.v T a.B 0 <.1.Z O.&...X.A 1.:.1.#.V :.:.:.$.k $.:.@.Z 7.7.k #.9 ^ k.g.Y z.M.M.M.M.M.M.M.M.M.M.M.M.",
"M.M.M.M.M.M.M.M.M.M.M.M.M.M.k.m t.u.z 0 %.1.k O.*...X.V 1.:.1.@.V :.:.:.$.V :.:.#.k 7.7.k #.= T j.y.c l.M.M.M.M.M.M.M.M.M.M.M.M.",
"M.M.M.M.M.M.M.M.M.M.M.M.M.M.k.x R c O 0 $.:.V @.1.1.X.A 1.:.:.#.V :.:.:.$.k $.1.@.V 7.7.k #.9 i B 7 : z.M.M.M.M.M.M.M.M.M.M.M.M.",
"M.M.M.M.M.M.M.M.M.M.M.M.M.M.k.m / ! 7 0 :.:.V @.1.1.[ A 1.:.1.#.k :.:.:.$.V :.:.@.V 7.7.k #.8 v v T z l.M.M.M.M.M.M.M.M.M.M.M.M.",
"M.M.M.M.M.M.M.M.M.M.M.M.M.M.k.~ h.a.v 0 %.:.k @.1.1.X.V 1.:.:.#.V :.:.1.$.k $.7.@.k 7.7.k #.9 E E ^ x l.M.M.M.M.M.M.M.M.M.M.M.M.",
"M.M.M.M.M.M.M.M.M.M.M.M.M.M.k.E e.Y 3 0 $.0.=.o.+.+.J Z :.:.:.#.V :.8.7.$.k :.:.@.k 7.7.k #.9 T w.v 4 l.M.M.M.M.M.M.M.M.M.M.M.M.",
"M.M.M.M.M.M.M.M.M.M.M.M.M.M.k.5 7 4   0 %.q.5.,.-.I C C ;.1.1.#.V :.9.7.#.k ;.:.@.V :.%.k #.8 5 v 3 - x.M.M.M.M.M.M.M.M.M.M.M.M.",
"M.M.M.M.M.M.M.M.M.M.M.M.M.M.k.R y./ 7 0 %.:.S s.0.1.o.K 1.:.1.#.V :.8.7.$.V :.:.@.V 1.$.k #.9 Y t./ x l.M.M.M.M.M.M.M.M.M.M.M.M.",
"M.M.M.M.M.M.M.M.M.M.M.M.M.M.k.~ g./ 4 0 %.1.Z -.1.1.+.J :.:.:.#.V :.8.7.$.k $.1.@.V 1.%.k #., Q j./ 7 l.M.M.M.M.M.M.M.M.M.M.M.M.",
"M.M.M.M.M.M.M.M.M.M.M.M.M.M.k.x B 7   0 %.1.V J I o.H Z 1.:.:.#.V :.8.7.$.k :.1.@.V :.%.k #.9 x B 7 - z.M.M.M.M.M.M.M.M.M.M.M.M.",
"M.M.M.M.M.M.M.M.M.M.M.M.M.M.k.N e.~ 7 0 $.:.V X.+.o.] A :.:.:.#.V :.7.7.#.V $.:.[ V :.$.k #.9 n ^ E x l.M.M.M.M.M.M.M.M.M.M.M.M.",
"M.M.M.M.M.M.M.M.M.M.M.M.M.M.k.w.l.a.v 0 1.7.V @.1.1.X.A 1.:.:.#.k :.8.7.$.k :.' l A :.$.V #.9 T h.p.m l.M.M.M.M.M.M.M.M.M.M.M.M.",
"M.M.M.M.M.M.M.M.M.M.M.M.M.M.k.E f.^ > 0 7.7.V @.:.:.X.A 1.:.1.#.V :.8.7.$.V :.` d l :.$.k #.9 T g.^ 5 l.M.M.M.M.M.M.M.M.M.M.M.M.",
"M.M.M.M.M.M.M.M.M.M.M.M.M.M.k.Y r.N > 0 7.7.V @.:.%.X.A 1.:.1.#.V :.9.7.#.k :.' d k :.$.k #.9 D r.m 4 l.M.M.M.M.M.M.M.M.M.M.M.M.",
"M.M.M.M.M.M.M.M.M.M.M.M.M.M.k.4 6 - O 0 8.7.k #.$.S } A :.:.1.#.V :.:.:.$.V :.` s l 1.$.k #.9 5 v 7 : z.M.M.M.M.M.M.M.M.M.M.M.M.",
"M.M.M.M.M.M.M.M.M.M.M.M.M.M.k.B G E m 0 8.7.A @.#.d { A :.:.1.#.V :.:.:.$.k :.' s k 1.$.k #.8 ^ h.p.B z.M.M.M.M.M.M.M.M.M.M.M.M.",
"M.M.M.M.M.M.M.M.M.M.M.M.M.M.k.v Y t.v 0 7.7.k @.@.d { A X.A *.#.V :.:.:.$.k :.` d k 1.%.k #.9 ! h.p.N z.M.M.M.M.M.M.M.M.M.M.M.M.",
"M.M.M.M.M.M.M.M.M.M.M.M.M.M.k.n r.T < 0 8.1.A @.@.d { A X.f *.#.k :.:.:.$.k $.] A A 1.$.k $.e T a.^ 5 z.M.M.M.M.M.M.M.M.M.M.M.M.",
"M.M.M.M.M.M.M.M.M.M.M.M.M.M.k.x N 6   0 *.1.k @.@.d { A [ l *.#.V :.:.:.$.k $.:.[ V 2.6.=.4.n z B 5 - z.M.M.M.M.M.M.M.M.M.M.M.M.",
"M.M.M.M.M.M.M.M.M.M.M.M.M.M.k.B w.E 7 0 %.1.Z @.@.f { A $.#.1.#.V :.:.:.$.k :.7.#.V W ! ! Y 7 N w.! x z.M.M.M.M.M.M.M.M.M.M.M.M.",
"M.M.M.M.M.M.M.M.M.M.M.M.M.M.k./ j.g.N 0 %.1.Z @.O.f { A 1.1.1.#.V :.:.:.$.k $.1.#.V G U Y R z ~ p.^ v z.M.M.M.M.M.M.M.M.M.M.M.M.",
"M.M.M.M.M.M.M.M.M.M.M.M.M.M.k.E g.g.N 0 *.1.k O.@.j { A 1.:.1.@.V :.:.:.#.k :.:.O.V K M b M 5 R Y E v z.M.M.M.M.M.M.M.M.M.M.M.M.",
"M.M.M.M.M.M.M.M.M.M.M.M.M.M.k.T f.i.x 0 %.1.A @.#.d { A :.%.:.#.V :.1.1.$.k $.:.@.V :.#.V J 1 x B B 5 z.M.M.M.M.M.M.M.M.M.M.M.M.",
"M.M.M.M.M.M.M.M.M.M.M.M.M.M.j.T r.B < 0 %.1.k @.#.j } A 1.1.1.#.V :.9.7.$.k :.:.@.V :.$.V $.9 m ^ m 4 z.M.M.M.M.M.M.M.M.M.M.M.M.",
"M.M.M.M.M.M.M.M.M.M.M.M.M.M.k.7 v 4   0 '  .k #.%.X.X.A 1.:.1.#.V :.8.7.$.k $.:.@.V :.:.V #.9 5 v 4 - z.M.M.M.M.M.M.M.M.M.M.M.M.",
"M.M.M.M.M.M.M.M.M.M.M.M.M.M.k.E f.y.v w k ) k @.1.1.X.V 1.:.1.@.V :.9.7.$.k :.:.@.V $.[ j #.9 R p.e.m z.M.M.M.M.M.M.M.M.M.M.M.M.",
"M.M.M.M.M.M.M.M.M.M.M.M.M.M.k.E g.a.m 0 A ) A @.:.:.X.A 1.:.:.#.V :.8.7.$.V $.:.@.V X.s j #.9 E g.w.x l.M.M.M.M.M.M.M.M.M.M.M.M.",
"M.M.M.M.M.M.M.M.M.M.M.M.M.M.j.E f.Q < 0 $.%.k @.:.:.X.V 1.:.:.#.V :.8.7.$.V :.:.@.A X.j j #.9 Y u.B 4 x.M.M.M.M.M.M.M.M.M.M.M.M.",
"M.M.M.M.M.M.M.M.M.M.M.M.M.M.k.E t.B > 0 %.:.V @.1.1.X.V 1.:.1.#.k :.7.7.$.k $.:.@.k $.O.V #.9 Y e.m 5 l.M.M.M.M.M.M.M.M.M.M.M.M.",
"M.M.M.M.M.M.M.M.M.M.M.M.M.M.k.7 v 4 O 8 X.1.V O.1.1.X.A 1.:.1.#.V :.:.:.$.V :.:.O.V 7.$.V O.9 5 v 4 - l.M.M.M.M.M.M.M.M.M.M.M.M.",
"M.M.M.M.M.M.M.M.M.M.M.M.M.M.k.Y w.Q 7 # h @.A #.1.1.X.A 1.:.X.` h [ :.1.$.V $.:.X.k %.k a V @ B w.^ x l.M.M.M.M.M.M.M.M.M.M.M.M.",
"M.M.M.M.M.M.M.M.M.M.M.M.M.M.j.~ u.Y 4 # w a k [ $.%.[ V $.` r w w r ` $.#.h $.$.X.k V w r y @ T g.w.7 l.M.M.M.M.M.M.M.M.M.M.M.M.",
"M.M.M.M.M.M.M.M.M.M.M.M.M.M.k.x c 5 O o @ # = 9 9 9 9 9 9 = $ $ # # = 9 9 0 9 9 9 0 & @ @ & . c U z > z.M.M.M.M.M.M.M.M.M.M.M.M.",
"M.M.M.M.M.M.M.M.M.M.M.M.M.M.b.u.u.u.u.u.u.u.u.u.u.u.i.d.y.u.u.u.u.u.u.y.i.d.u.u.i.d.u.u.u.u.u.u.u.u.u.n.M.M.M.M.M.M.M.M.M.M.M.M."
};
