/* XPM */
static char *Nouveau_projet_resized[] = {
/* columns rows colors chars-per-pixel */
"64 64 229 2 ",
"   c #3C1D14",
".  c #38160A",
"X  c #3B2414",
"o  c #392827",
"O  c #3D3437",
"+  c #3A2E2C",
"@  c #411D11",
"#  c #481C08",
"$  c #4B240E",
"%  c #59260B",
"&  c #4C2515",
"*  c #42251B",
"=  c #482819",
"-  c #552A16",
";  c #5B2C15",
":  c #562C18",
">  c #5C331D",
",  c #5D3318",
"<  c #4D321F",
"1  c #622A0D",
"2  c #672B0B",
"3  c #76320D",
"4  c #612D14",
"5  c #6B3213",
"6  c #64341B",
"7  c #673618",
"8  c #753B17",
"9  c #71310B",
"0  c #442B23",
"q  c #432E2A",
"w  c #4A2D23",
"e  c #443124",
"r  c #45322E",
"t  c #4C3629",
"y  c #573727",
"u  c #443433",
"i  c #483938",
"p  c #553C35",
"a  c #522E21",
"s  c #673C26",
"d  c #713E22",
"f  c #7E431B",
"g  c #77401D",
"h  c #59452A",
"j  c #594639",
"k  c #58533D",
"l  c #68442B",
"z  c #7A4626",
"x  c #674838",
"c  c #795735",
"v  c #71522F",
"b  c #7C6436",
"n  c #7E6539",
"m  c #5E451E",
"M  c #453F42",
"N  c #4B4244",
"B  c #4B4649",
"V  c #49454A",
"C  c #594A48",
"Z  c #4B4B51",
"A  c #534D51",
"S  c #54555A",
"D  c #56595F",
"F  c #585558",
"G  c #52524F",
"H  c #664D45",
"J  c #6B5346",
"K  c #6D544B",
"L  c #695848",
"P  c #715649",
"I  c #665957",
"U  c #735C54",
"Y  c #696349",
"T  c #786658",
"R  c #746E50",
"E  c #5A5D62",
"W  c #565B61",
"Q  c #645F61",
"!  c #5E6267",
"~  c #67666A",
"^  c #7D6A65",
"/  c #686C72",
"(  c #6D7176",
")  c #6F767D",
"_  c #72757A",
"`  c #75797E",
"'  c #757477",
"]  c #726E71",
"[  c #87390D",
"{  c #943E0B",
"}  c #823A13",
"|  c #A33D02",
" . c #9C420C",
".. c #95400F",
"X. c #9A540F",
"o. c #82451D",
"O. c #884A18",
"+. c #954A1A",
"@. c #945311",
"#. c #884A0F",
"$. c #AC4A0D",
"%. c #A4450C",
"&. c #B74D0C",
"*. c #BC510E",
"=. c #A55C12",
"-. c #A44E10",
";. c #AB6113",
":. c #B86914",
">. c #B0630F",
",. c #844A25",
"<. c #894D26",
"1. c #8B522A",
"2. c #97582D",
"3. c #845433",
"4. c #8C5935",
"5. c #8D5D3A",
"6. c #825A37",
"7. c #965E36",
"8. c #A55D2A",
"9. c #A15F30",
"0. c #85673B",
"q. c #9C653C",
"w. c #97643B",
"e. c #8D713A",
"r. c #A36436",
"t. c #AA6937",
"y. c #B36B35",
"u. c #BB6E35",
"i. c #BD753D",
"p. c #B0723D",
"a. c #C4550E",
"s. c #C9570D",
"d. c #CC590E",
"f. c #D35C0E",
"g. c #C67313",
"h. c #D27B16",
"j. c #C5783D",
"k. c #876A46",
"l. c #996941",
"z. c #957A46",
"x. c #866A59",
"c. c #8E734A",
"v. c #A46D42",
"b. c #AA7144",
"n. c #A67448",
"m. c #B67844",
"M. c #876E63",
"N. c #88736C",
"B. c #927E76",
"V. c #8F7A70",
"C. c #C67D43",
"Z. c #DB8216",
"A. c #E48716",
"S. c #A48556",
"D. c #B68953",
"F. c #98837B",
"G. c #9A816C",
"H. c #A98B5E",
"J. c #C8844B",
"K. c #D48A4C",
"L. c #D28445",
"P. c #CA8B53",
"I. c #D38D51",
"U. c #CB935A",
"Y. c #DA9355",
"T. c #DC9A5B",
"R. c #D49458",
"E. c #E19C5C",
"W. c #E89C58",
"Q. c #D09E62",
"!. c #E09F60",
"~. c #CDA667",
"^. c #D8AF71",
"/. c #E4A363",
"(. c #E9A664",
"). c #ECA967",
"_. c #EDAB69",
"`. c #F2AE6A",
"'. c #F1AA65",
"]. c #F7B36E",
"[. c #F6B675",
"{. c #EEA25C",
"}. c #797D83",
"|. c #747A80",
" X c #7D8287",
".X c #84878C",
"XX c #998986",
"oX c #94969B",
"OX c #898F95",
"+X c #A4938C",
"@X c #A69793",
"#X c #A28E85",
"$X c #B5A69E",
"%X c #ADA19F",
"&X c #999DA2",
"*X c #9AA1A8",
"=X c #B5A8A5",
"-X c #BEB1AA",
";X c #BCB4B4",
":X c #AEA4A3",
">X c #C7BDAE",
",X c #C3BAB9",
"<X c #EFB983",
"1X c #EBCB89",
"2X c #CDC3B4",
"3X c #CCC2BF",
"4X c #D0C7B7",
"5X c #D2C9BB",
"6X c #D0C7B8",
"7X c #CCC3C1",
"8X c #CEC8C9",
"9X c #D4CCCB",
"0X c #D5CDC5",
"qX c #DBD5D4",
"wX c #D6D0CA",
"eX c #E2DCD5",
"rX c #E1DCDB",
"tX c #E6E1DB",
"yX c #E0DFE1",
"uX c #E5E3E3",
"iX c #ECE9E4",
"pX c #EDEAEB",
"aX c #EAE6E3",
"sX c #F2EFEE",
"dX c #F3F1EC",
"fX c #F5F3F2",
"gX c #FFFFFF",
"hX c #F8F7F7",
"jX c #F0EFF2",
/* pixels */
"gXgXgXgXgXgXgXgXgXgXgXgXgXgXgXgXgXgXgXgXgXgXgXgXgXgXgXgXgXgXgXgXgXgXgXgXgXgXgXgXgXgXgXgXgXgXgXgXgXgXgXgXgXgXgXgXgXgXgXgXgXgXgXgX",
"gXgXgXgXgXgXgXgXgXgXgXgXgXgXgXgXgXgXgXgXgXgXgXgXgXgXgXgXgXgXgXgXgXgXgXgXgXgXgXgXgXgXgXgXgXgXgXgXgXgXgXgXgXgXgXgXgXgXgXgXgXgXgXgX",
"gXgXgXgXgXgXgXgXgXgXgXgXgXgXgXgXgXgXgXgXgXgXgXgXgXgXgXgXgXgXgXgXgXgXgXgXgXgXgXgXgXgXgXgXgXgXgXgXgXgXgXgXgXgXgXgXgXgXgXgXgXgXgXgX",
"gXgXgXgXgXgXgXgXgXgXgXgXgXgXgXgXgXgXgXiXuXgXgXgXgXgXgXgXgXgXgXgXgXgXgXgXgXgXgXgXgXgXgXgXgXgXgXgXgXgXgXgXgXgXgXgXgXgXgXgXgXgXgXgX",
"gXgXgXgXgXgXgXgXgXgXgXgXgXgXgXgXgXgXgX,Xy sXgXgXgXgXgXgXgXgXgXgXgXgXgXgXgXgXgXgXgXgXgXgXgXgXgXgXgXgXgXgXgXgXgXgXgXgXgXgXgXgXgXgX",
"gXgXgXgXgXgXgXgXgXgXgXgXgXgXgXgXgXgXgX3Xy 7XgXgXgXgXgXgXgXgXgXgXgXgXgXgXgXgXgXgXgXgXgXgXgXgXgXgXgXgXgXgXgXgXgXgXgXgXgXgXgXgXgXgX",
"gXgXgXgXgXgXgXgXgXgXgXgXgXgXgXgXgXgXgXB.c qXgXgXgXgXgXgXgXgXgXgXpXgXgXgXgXgXgXgXgXgXgXgXgXgXgXgXgXgXgXgXgXgXgXgXgXgXgXgXgXgXgXgX",
"gXgXgXgXgXgXgXgXgXgXgXgXgXgXgXgXgXgX,Xc.c.aXgXgXgXgXgXgXgXgXgX#Xk.qXgXgXgXgXgXgXgXgXgXgXgXgXgXgXgXgXgXgXgXgXgXgXgXgXgXgXgXgXgXgX",
"gXgXgXgXgXgXgXgXgXgXgXgXgXgXgXgXgXgXx.U.V.pXgXgXsXgXgXgXgXgX9XS.H.fXgXgXgXgXgXgXgXgXgXgXgXgXgXgXgXgXgXgXgXgXgXgXgXgXgXgXgXgXgXgX",
"gXgXgXgXgXgXgXgXgXgXgXgXgXgXgXgXgX9Xv 1Xx.aXgXuXp ^ eXgXgXgX:XD.F.gXgXgXgXgXgXgXgXgXgXgXgXgXgXgXgXgXgXgXgXgXgXgXgXgXgXgXgXgXgXgX",
"gXgXgXgXgXgXgXgXgXgXgXgXgXgXgXgXgX+Xe.1XS.XXaXp A B o M.pXhXM.<Xk.jXgXgXgXgXgXgXgXgXgXgXgXgXgXgXgXgXgXgXgXgXgXgXgXgXgXgXgXgXgXgX",
"gXgXgXgXgXgXgXgXgXgXgXgXgXgXgXhXgXF.n.^.1Xk.0 M  X.X.XN j K H.1Xc 7XgXgXgXgXgXgXgXgXgXgXgXgXgXgXgXgXgXgXgXgXgXgXgXgXgXgXgXgXgXgX",
"gXgXgXgXgXgXgXgXgXgXgXgXgXgXgXgXgX+X0.~.^.1XS.t ] &X&X*X] u P ^.w.XXgXgXgXgXgXgXgXgXgXgXgXgXgXgXgXgXgXgXgXgXgXgXgXgXgXgXgXgXgXgX",
"gXgXgXgXgXgXgXgXgXgXgXgXgXgXgXgXgXqXl Q.~.^.1X~.r _ ( _ |.( u 5.c @XgXhXgXgXgXgXgXgXgXgXgXgXgXgXgXgXgXgXgXgXgXgXgXgXgXgXgXgXgXgX",
"gXgXgXgXgXgXgXgXgXgXgXgXgXgXgXgXgXgXM.v ~.~.^.D.* i i r i q r @ = 8XgXgXgXgXgXgXgXgXgXgXgXgXgXgXgXgXgXgXgXgXgXgXgXgXgXgXgXgXgXgX",
"gXgXgXgXgXgXgXgXgXgXgXgXgXgXgXgXgXgXgXK y c y p C I ~ N.Q ] ~ ] C j 9XgXgXgXgXgXgXgXgXgXgXgXgXgXgXgXgXgXgXgXgXgXgXgXgXgXgXgXgXgX",
"gXgXgXgXgXgXgXgXgXgXgXgXgXgXgXgXgXgXwXH q A .X] |.~ I ] M / F B.A A U 8XgXgXgXgXgXgXgXgXgXgXgXgXgXgXgXgXgXgXgXgXgXgXgXgXgXgXgXgX",
"gXgXgXgXgXgXgXgXgXgXgXgXgXgXgXgXgX3Xi Q |.I B.C Z Z O o M M q o B A = XXgXgXgXgXgXgXgXgXgXgXgXgXgXgXgXgXgXgXgXgXgXgXgXgXgXgXgXgX",
"gXgXgXgXgXgXgXgXgXgXgXgXgXgXgXgXgXU I XXM S o o i s 3.q.q.v.q.5.v   N.gXgXgXgXgXgXgXgXgXgXgXgXgXgXgXgXgXgXgXgXgXgXgXgXgXgXgXgXgX",
"gXgXgXgXgXgXgXgXgXgXgXgXgXgXgXgX=X0 p i o y 3.t.T.!._.`.].`.`.].(.s yXgXgXgXgXgXgXgXgXgXgXgXgXgXgXgXgXgXgXgXgXgXgXgXgXgXgXgXgXgX",
"gXgXgXgXgXgXgXgXgXgXgXgXgXgXgXgXrXM.0 p b.R.C.K.b.} ,.,.5.R.!.v.,.} +XgXgXgXgXgXgXgXgXgXgXgXgXgXgXgXgXgXgXgXgXgXgXgXgXgXgXgXgXgX",
"gXgXgXgXgXgXgXgXgXgXgXgXgXgXgXgXgXfXa P.U.y.u.Y.,.| a.a.{ 3.U.} a.| x.gXgXgXgXgXgXgXgXgXgXgXgXgXgXgXgXgXgXgXgXgXgXgXgXgXgXgXgXgX",
"gXgXgXgXgXgXgXgXgXgXgXgXgXgXgXhXgX9X& 7.5.J.Y.!.r.4 1 5 2 6 C.> 9 - 9XgXgXgXgXgXgXgXgXgXgXgXgXgXgXgXgXgXgXgXgXgXgXgXgXgXgXgXgXgX",
"gXgXgXgXgXgXgXgXgXgXgXgXgXgXgXgXfXH 4 z 2.3.).!.C.9.s * s 3.l.a & d qXgXgXgXgXgXgXgXgXgXgXgXgXgXgXgXgXgXgXgXgXgXgXgXgXgXgXgXgXgX",
"gXgXgXgXgXgXgXgXgXgXgXgXgXgXgXfXU 1.u.z 9.t.(.).E.y.,.v.'.).<X<X7.c qXgXgXgXgXgXgXgXgXgXgXgXgXgXgXgXgXgXgXgXgXgXgXgXgXgXgXgXgXgX",
"gXgXgXgXgXgXgXgXgXgXgXgXgXgX;Xx m.E.j.<.7.T.m.1.l.E.u.r.K.r.C.m.z 1.=XgXgXgXgXgXgXgXgXgXgXgXgXgXgXgXgXgXgXgXgXgXgXgXgXgXgXgXgXgX",
"gXgXgXgXgXgXgXgXgXgXgXgX9XM.4.R.`.T.j.8.{ +.*.*.[ 7.4.; ,.7 5 4 8 % N.gXgXgXgXgXgXgXgXgXgXgXgXgXgXgXgXgXgXgXgXgXgXgXgXgXgXgXgXgX",
"gXgXgXgXgXgXgXgXgXgXhXB.3.P._.(././.C...d.s.a.a.f.2 2 $.| $.a.*.s.{ : -XgXgXgXgXgXgXgXgXgXgXgXgXgXgXgXgXgXgXgXgXgXgXgXgXgXgXgXgX",
"gXgXgXgXgXgXgXgXgXaXx q._.)./././.(.p.{ d.a.a.s.{ } d.s.d.f.%.%.d.f.[ > F.gXgXgXgXgXgXgXgXgXgXgXgXgXgXgXgXgXgXgXgXgXgXgXgXgXgXgX",
"gXgXgXgXgXgXgXgXgXK m.].!././././.(.2.[ s.a.a.a.3 a.d.a.| } 4 3 %.a.d.2.p.M.fXgXgXgXgXgXgXgXgXgXgXgXgXgXgXgXgXgXgXgXgXgXgXgXgXgX",
"gXgXgXgXgXgXgXgXXXq.].!./././././.(.2.} d.a.s...} a.[ 1 ; 3 &.{ 9 2 ..3 l.m.N.gXgXgXgXgXgXgXgXgXgXgXgXgXgXgXgXgXgXgXgXgXgXgXgXgX",
"gXgXgXgXgXgXgXpXy T.(./././././././.2.9 s.a.s.3 3 1 % } $.a.a.s.a. .3 & @ !.q.,XgXgXgXgXgXgXgXgXgXgXgXgXgXgXhXgXgXgXgXgXgXgXgXgX",
"gXgXgXgXgXhXgX;X8 /./././.(./.(.(.(.9.1 *.s.&.# 4 { &.a.a.a.a.a.a.s.a.$.9 l.E.M.gXgXgXgXgXgXgXgXgXgXgXhXgXgXgXgXgXgXgXgXgXgXgXgX",
"gXgXgXgXgXgXgX%X8 T./././.!.(.!.Y.!.m.4 %.d.$.[ &.s.a.a.a.a.a.a.a.a.a.d.%.3.`.5.uXgXgXgXgXgXgXgXgXgXgXgXgX9X@XN.,XgXhXgXgXgXgXgX",
"gXgXgXgXgXgXgX-X8 K././././.!.!.C.!.K.7 3 a.a.a.s.a.a.a.a.a.a.a.a.a.a.d.%.3.].l.9XgXgXgXgXgXgXgXgXgXqXF.H H Q ' p -XgXgXgXgXgXgX",
"gXgXgXgXgXgXgXuXs u.T.).!./.(.E.<.R.E.2.; %.a.a.a.a.a.a.a.a.a.a.a.a.a.d.3 b.].l.8XgXgXgXgXgXgXgX9XT A I ` }.}.}..Xj 9XgXhXgXgXgX",
"gXgXgXgXgXgXgXuXa <.C.!.(.!./.r.,.E./.C.,.1 %.a.a.a.a.a.a.a.a.a.a.a.f.{ 6 R.R.c qXgXgXgXgXgXgXgXK F }.}.` _ _ ( }..Xp qXgXgXgXgX",
"gXgXgXgXgXgXgXV.<.u.j.I.(.!.C.6 y.!.(.E.j.d 1 { &.a.a.a.s.s.s.s.a.a.{ # b.m.I.H fXgXgXgXgXgXgXgXH E ` ( _ _ _ _ ( .X` H M.+XgXgX",
"gXgXgXgXgXgXjXz j.I.!.!.!.(.K.d r.(.(.(.T.j.,.1 2 [ { %.$.%.%.{ } 1 4 m.P.5.].7.:XgXhXgXgXgXgXfXC E }._ _ _ _ _ _ ( OX] % % 7XgX",
"gXgXgXgXgXgX;Xo.j.!.`.`.'.`.(.2.,.R.C.!.(.!.I.m.1.d 6 4 4 4 6 6 d r.I.`.c m.].J.M.gXgXgXgXhXgXfXj E |._ _ _ _ _ / E F ~ y # N.gX",
"gXgXgXgXgXgX+X8.7.P.m.q.l.l.m.y.= b.Y.P././././.E.Y.L.j.i.m.C.I.E.T.K.v.- Y.(.R.J XXXXrXgXgXgXqXp ! ` ' _ / ~ F N r 0 q i . M.gX",
"gXgXgXgXgXgXG.+.> H I A B M i q : > 5.U.(._._._.'.).K.K.`.`.`._.'.P.q.s 6 I._.P.: b.p.y :XF.J > q ! _ / D N u q i N A D D o qXgX",
"gXgXgXgXgXgXN.w ~ W Z M u i O + q 6 ; 4 z 3.3.4.0.1.,.1.r.n.n.n.v.3.6 6 ,.L.E.3.4.v.7.@ % 1 8 8 r D N r q i N S D D S S W u 0XgX",
"gXgXgXgXgXhXH M u u ~ ) / ~ S O + } A.h.g.:.>.=.X.@.@.@.#.#.@.@.+.=.=.3 d z : @ 2.z - s 8 <.f 9 * 0 r B F D D S F F S S W u +XgX",
"gXgXgXgXgXaXi o B }.&XoX|.` ` E V , h.h.h.h.Z.Z.Z.Z.Z.Z.A.A.Z.g.=.#.8 , @ & & s 4.& 7.7.= % y H q Z D D F S S S S S S S D N ^ gX",
"gXgXgXgXgXfXj Z `  XoXoX}.( _ E S < @.>.;.>.:.:.:.:.:.;.#.g , : , 7 8 ; 6.m.s 9.n.z ,.!.5.@XfXiXC A S F S S S S S S S S D Z H hX",
"gXgXgXgXgXgXU Z ( }.oXoX}._ _ ~ S u = y > > , ; 4 5 - - - 7 8 f o.o.o.; 7.l.s y.!.R.d '.3.@XgXgXL Z D S S S S S S S S S D A C rX",
"gXgXgXgXgXgX+Xu / ` OXoX X( _ ~ D i k Y j t * $ - , g f O.o.f 8 5 , : * t.'.5.<.!.!.> d @ ^ gXgXN.i D S S S S S S S S F D D i eX",
"gXgXgXgXgXgX7Xq ~ ( .X&X X( ` / W A $ : ; 5 g f O.O.f g 7 6 : < h k Y j o.E.U.; ,.s i D + %XgXgX;Xu W D S S S S F W W S N o ^ gX",
"gXgXgXgXhXgXfXC A ( |. X|.` ( Z V M : f f ,.o.z g 6 , t e h Y R R R R h @ d s u B ( *XF p fXgXgXaXr S D F D W D Z N u i K @XhXgX",
"gXgXgXgXgXgXgXU N / ( / ~ N r l c l , f 8 , : $ X = e t h k R k R Y H t A Z Z |.OXOXI K eXgXgXgXgXB.o S Z B u i C N.=XeXgXgXgXgX",
"gXgXhXqX%XN.x - i D D N q 4.U.Y._.T.< X o t + h qXqXP X k Y k k Y k u   M W W I N K %XgXgXgXgXgXgXgXV.p H ^ @X9XdXgXgXgXgXgXgXgX",
"gX=Xy - # 1 8 g w S u s R._.`.l.J.R.X X < e * 3XgXgXtXt 0 e e e o + = XXU q j T ,XgXgXgXgXgXgXgXgXgXgXsXhXgXgXgXgXhXgXgXgXgXgXgX",
"gXP 2 ,.<.<.f 3 # * r._.b.K.'.7.6 l c S.e.0.t fXgXgXgXJ v e.b 0.b 0.l dXgXrXsXgXgXgXgXgXgXgXgXgXgXgXgXgXgXgXhXgXgXgXgXgXgXgXgXgX",
"gXV.1 8 1 % l T XXx j.'.z s z = X h k.0.c v U fXgXgXhXj h e.k.R c.b T gXgXgXgXgXhXgXgXgXgXgXgXgXgXgXgXgXgXgXgXgXgXgXgXgXgXgXgXgX",
"gXwXy H F.;XjXgXgX;X6 z J rX,Xt b v < < X I pXgXgXgXgX=X* h n n h . K G.XXsXgXgXgXgXgXgXgXgXgXgXgXgXgXgXgXgXgXgXgXgXgXgXgXgXgXgX",
"gXgXfXgXgXgXgXgXhXgXuX9XgXgXrXl 0.0.z.z.z.b x 0XgXhXgXiXh S.S.S.0.z.z.e.c x.hXgXgXgXgXgXgXgXgXgXgXgXgXgXgXgXgXgXgXgXgXgXgXgXgXgX",
"gXgXgXgXgXgXgXgXgXgXgXgXfXhX,X< v b b b b 0.m t 5X5X5X-X< m b b n b b b b $ @XdXiXdXgXgXgXgXgXgXgXgXgXgXgXgXgXgXgXgXgXgXgXgXgXgX",
"gXgXgXgXgXgXgXgXgXgXfX0X2X4X$XL J L J K Y P U T >X2X4X>XY k J J L L L J L c @X4X2X2X2XeXgXgXgXgXgXgXgXgXgXgXgXgXgXgXgXgXgXgXgXgX",
"gXgXgXgXgXgXgXgXgXgXhXiXeXwXwX5X5X5X6X4X5X6X2X5X2X2X>X2X4X4X2X2X4X4X4X4X5X5X6X5X5XwXeXpXgXgXgXgXgXgXgXgXgXgXgXgXgXgXgXgXgXgXgXgX",
"gXgXgXgXgXgXgXgXgXgXgXgXgXgXgXdXfXdXiXiXiXtXtXeXeXeXeXeXeXeXeXtXtXtXaXiXpXdXfXgXgXgXgXgXgXgXgXgXgXgXgXgXgXgXgXgXgXgXgXgXgXgXgXgX",
"gXgXgXgXgXgXgXgXgXgXgXgXgXgXgXgXgXgXgXgXgXgXgXgXgXgXgXgXgXgXgXgXgXgXgXgXgXgXgXgXgXgXgXgXgXgXgXgXgXgXgXgXgXgXgXgXgXgXgXgXgXgXgXgX",
"gXgXgXgXgXgXgXgXgXgXgXgXgXgXgXgXgXgXgXgXgXgXgXgXgXgXgXgXgXgXgXgXgXgXgXgXgXgXgXgXgXgXgXgXgXgXgXgXgXgXgXgXgXgXgXgXgXgXgXgXgXgXgXgX",
"gXgXgXgXgXgXgXgXgXgXgXgXgXgXgXgXgXgXgXgXgXgXgXgXgXgXgXgXgXgXgXgXgXgXgXgXgXgXgXgXgXgXgXgXgXgXgXgXgXgXgXgXgXgXgXgXgXgXgXgXgXgXgXgX"
};
