/* XPM */
static char *left_resized[] = {
/* columns rows colors chars-per-pixel */
"64 64 216 2 ",
"   c #382E31",
".  c #3E3437",
"X  c #4B2819",
"o  c #582C16",
"O  c #502D18",
"+  c #532C1A",
"@  c #5C311B",
"#  c #58321C",
"$  c #6A2E0E",
"%  c #6E300F",
"&  c #74320E",
"*  c #7A350F",
"=  c #672E12",
"-  c #633214",
";  c #6A3415",
":  c #6A3916",
">  c #62341A",
",  c #6B3719",
"<  c #6C391B",
"1  c #753713",
"2  c #733D1A",
"3  c #492C23",
"4  c #4B3425",
"5  c #47332B",
"6  c #4A3A2A",
"7  c #533324",
"8  c #563927",
"9  c #473735",
"0  c #4B3936",
"q  c #4B3C3B",
"w  c #583E35",
"e  c #643A25",
"r  c #6C3C22",
"t  c #723F21",
"y  c #794219",
"u  c #7B421C",
"i  c #5A442B",
"p  c #584637",
"a  c #574D3D",
"s  c #69462A",
"d  c #784628",
"f  c #67512E",
"g  c #684737",
"h  c #754C34",
"j  c #685437",
"k  c #785938",
"l  c #796036",
"z  c #7D6439",
"x  c #7E683B",
"c  c #463E40",
"v  c #4D4344",
"b  c #4D4649",
"n  c #4E494C",
"m  c #544442",
"M  c #534B4D",
"N  c #594A48",
"B  c #514F52",
"V  c #535155",
"C  c #54555A",
"Z  c #5C5658",
"A  c #674E46",
"S  c #6A5947",
"D  c #64514D",
"F  c #765645",
"G  c #735D4D",
"H  c #695956",
"J  c #775D54",
"K  c #6C644A",
"L  c #72684E",
"P  c #6A605F",
"I  c #776257",
"U  c #5C5E63",
"Y  c #645F61",
"T  c #5F6065",
"R  c #616165",
"E  c #63656A",
"W  c #696669",
"Q  c #786966",
"!  c #6B6D72",
"~  c #6E7176",
"^  c #767071",
"/  c #72757A",
"(  c #767578",
")  c #76797E",
"_  c #85390D",
"`  c #8D3D0E",
"'  c #923F0C",
"]  c #853A10",
"[  c #95400C",
"{  c #9B420D",
"}  c #854819",
"|  c #964515",
" . c #985514",
".. c #A3460D",
"X. c #AA4A0D",
"o. c #B44E0D",
"O. c #B94F0D",
"+. c #BC510E",
"@. c #A45A15",
"#. c #AC6114",
"$. c #B56814",
"%. c #824926",
"&. c #874C27",
"*. c #904D23",
"=. c #85512A",
"-. c #8D532C",
";. c #93552C",
":. c #99582C",
">. c #895836",
",. c #955D35",
"<. c #A45D2C",
"1. c #A25F30",
"2. c #836A3D",
"3. c #94613C",
"4. c #9C643B",
"5. c #8C713F",
"6. c #A76839",
"7. c #B56D37",
"8. c #B6713C",
"9. c #BC743D",
"0. c #C4550E",
"q. c #C97514",
"w. c #D27B15",
"e. c #C2773C",
"r. c #875C44",
"t. c #896745",
"y. c #986A45",
"u. c #8C7241",
"i. c #977546",
"p. c #846759",
"a. c #967557",
"s. c #A36D43",
"d. c #A86E40",
"f. c #AB7345",
"g. c #A7754A",
"h. c #B67A48",
"j. c #836D63",
"k. c #85726D",
"l. c #8D7569",
"z. c #977C6A",
"x. c #897A76",
"c. c #917C74",
"v. c #C47C42",
"b. c #C27F48",
"n. c #9A8049",
"m. c #BB814E",
"M. c #9C8168",
"N. c #988379",
"B. c #AB8D66",
"V. c #B89562",
"C. c #A08776",
"Z. c #CB854B",
"A. c #CC854A",
"S. c #D28B4E",
"D. c #C28651",
"F. c #C58953",
"G. c #CC8C53",
"H. c #D28D52",
"J. c #CF9158",
"K. c #D59255",
"L. c #DA9556",
"P. c #D79559",
"I. c #DD9B5C",
"U. c #E09E5E",
"Y. c #C69F62",
"T. c #DE9E61",
"R. c #E19F60",
"E. c #D0A56A",
"W. c #D7B578",
"Q. c #E4A363",
"!. c #E8A665",
"~. c #E4AD78",
"^. c #797D82",
"/. c #7D8187",
"(. c #82858A",
"). c #9B8983",
"_. c #8E9398",
"`. c #91959B",
"'. c #989A9E",
"]. c #A18E87",
"[. c #A9978D",
"{. c #A69692",
"}. c #AA9A95",
"|. c #AEA09A",
" X c #B2A49F",
".X c #B7AAA6",
"XX c #BCB1AB",
"oX c #E0BF80",
"OX c #C5BBAC",
"+X c #C1B6B3",
"@X c #C6BCB7",
"#X c #CCC2B4",
"$X c #CCC3BC",
"%X c #D2CABD",
"&X c #CDC4C2",
"*X c #D3CBC3",
"=X c #D4CCCA",
"-X c #D9D2CC",
";X c #D9D2CD",
":X c #DCD6D5",
">X c #DED8D7",
",X c #E3DED6",
"<X c #E2DDDB",
"1X c #E5E1DB",
"2X c #E9E5DF",
"3X c #E6E2E1",
"4X c #EAE6E4",
"5X c #ECE9E5",
"6X c #EDEAEA",
"7X c #F1EEED",
"8X c #F3F1ED",
"9X c #F5F4F3",
"0X c #F8F7F5",
"qX c #F9F8F7",
"wX c #F8F7F8",
"eX c #FFFFFF",
/* pixels */
"eXeXeXeXeXeXeXeXeXeXeXeXeXeXeXeXeXeXeXeXeXeXeXeXeXeXeXeXeXeXeXeXeXeXeXeXeXeXeXeXeXeXeXeXeXeXeXeXeXeXeXeXeXeXeXeXeXeXeXeXeXeXeXeX",
"eXeXeXeXeXeXeXeXeXeXeXeXeXeXeXeXeXeXeXeXeXeXeXeXeXeXeXeXeXeXeXeXeXeXeXeXeXeXeXeXeXeXeXeXeXeXeXeXeXeXeXeXeXeXeXeXeXeXeXeXeXeXeXeX",
"eXeXeXeXeXeXeXeXeXeXeXeXeXeXeXeXeXeXeXeXeXeXeXeXeXeXeXeXeXeXeXeXeXeXeXeXeXeXeXeXeXeXeXeXeXeXeXeXeXeXeXeXeXeXeXeXeXeXeXeXeXeXeXeX",
"eXeXeXeXeXeXeXeXeXeXeXeXeXeXeXeXeXeXeXeXeXeXeXeXeXeXeXeXeXeXeXeXeXeXeXeXeXeXeXeXeXeXeX>X6XeXeXeXeXeXeXeXeXeXeXeXeXeXeXeXeXeXeXeX",
"eXeXeXeXeXeXeXeXeXeXeXeXeXeXeXeXeXeXeXeXeXeXeXeXeXeXeXeXeXeXeXeXeXeXeXeXeXeXeXeXeXeX3XJ @XeXeXeXeXeXeXeXeXeXeXeXeXeXeXeXeXeXeXeX",
"eXeXeXeXeXeXeXeXeXeXeXeXeXeXeXeXeXeXeXeXeXeXeXeXeXeXeXeXeXeXeXeXeXeXeXeXeXeXeXeXeXeX$Xh +XeXeXeXeXeXeXeXeXeXeXeXeXeXeXeXeXeXeXeX",
"eXeXeXeXeXeXeXeXeXeXeXeXeXeXeXeXeXeXeXeXeXeXeXeXeXeXeXeXeXeXqX5X0XeXeXeXeXeXeXeXeXeX;Xt.N.qXeXeXeXeXeXeXeXeXeXeXeXeXeXeXeXeXeXeX",
"eXeXeXeXeXeXeXeXeXeXeXeXeXeXeXeXeXeXeXeXeXeXeXeXeXeXeXeXeXeX<Xz.[.0XeXeXeXeXeXeXeXeX3Xa.a.+XeXeXeXeXeXeXeXeXeXeXeXeXeXeXeXeXeXeX",
"eXeXeXeXeXeXeXeXeXeXeXeXeXeXeXeXeXeXeXeXeXeXeXeXeXeXeXeXeXeX6XB.B.*XeXeXeXeX0X5XeXeX6XM.V.z.qXeXeXeXeXeXeXeXeXeXeXeXeXeXeXeXeXeX",
"eXeXeXeXeXeXeXeXeXeXeXeXeXeXeXeXeXeXeXeXeXeXeXeXeXeXeXeXeXeXwXN.V. XeXeXeX=Xk.H ;XeX3Xa.W.t.=XeXeXeXeXeXeXeXeXeXeXeXeXeXeXeXeXeX",
"eXeXeXeXeXeXeXeXeXeXeXeXeXeXeXeXeXeXeXeXeXeXeXeXeXeXeXeXeXeX4Xa.E.z.3X<Xc.m B B D =X{.B.~.i.}.eXeXeXeXeXeXeXeXeXeXeXeXeXeXeXeXeX",
"eXeXeXeXeXeXeXeXeXeXeXeXeXeXeXeXeXeXeXeXeXeXeXeXeXeXeXeXeXeX&Xt.oXB.J D D ) /./ v p a.W.W.n.).eXeXeXeXeXeXeXeXeXeXeXeXeXeXeXeXeX",
"eXeXeXeXeXeXeXeXeXeXeXeXeXeXeXeXeXeXeXeXeXeXeXeXeXeXeXeXeXeX{.i.E.L m ! _.'.`.^ g B.W.W.Y.u.}.eXeXeXeXeXeXeXeXeXeXeXeXeXeXeXeXeX",
"eXeXeXeXeXeXeXeXeXeXeXeXeXeXeXeXeXeXeXeXeXeXeXeXeXeXeXeXeXeX|.>.k q R ^ ~ ~ ~ p V.oXW.J.V.k =XeXeXeXeXeXeXeXeXeXeXeXeXeXeXeXeXeX",
"eXeXeXeXeXeXeXeXeXeXeXeXeXeXeXeXeXeXeXeXeXeXeXeXeXeXeXeXeXeX+X8 X 9 0 q q p q 3 g.E.Y.V.3.c.0XeXeXeXeXeXeXeXeXeXeXeXeXeXeXeXeXeX",
"eXeXeXeXeXeXeXeXeXeXeXeXeXeXeXeXeXeXeXeXeXeXeXeXeXeXeXeXeX&XH N Q W W R ^ P H M m j k h I 4XeXeXeXeXeXeXeXeXeXeXeXeXeXeXeXeXeXeX",
"eXeXeXeXeXeXeXeXeXeXeXeXeXeXeXeXeXeXeXeXeXeXeXeXeXeXeXeX&XQ V N k.Z U V Q Z R E W x.D 0 D $XeXeXeXeXeXeXeXeXeXeXeXeXeXeXeXeXeXeX",
"eXeXeXeXeXeXeXeXeXeXeXeXeXeXeXeXeXeXeXeXeXeXeXeXeXeXeXeX{.w b b 5 9 v q 5 c B B N ^ Y ! P D @XeXeXeXeXeXeXeXeXeXeXeXeXeXeXeXeXeX",
"eXeXeXeXeXeXeXeXeXeXeXeXeXeXeXeXeXeXeXeXeXeXeXeXeXeXeXeX7Xx.3 h >.y.s.s.3.r.h w 5 9 B M x.H k.9XeXeXeXeXeXeXeXeXeXeXeXeXeXeXeXeX",
"eXeXeXeXeXeXeXeXeXeXeXeXeXeXeXeXeXeXeXeXeXeXeXeXeXeXeXeXeX=Xh J.Q.Q.!.Q.I.T.P.G.6.>.w 5 q q w .XeXeXeXeXeXeXeXeXeXeXeXeXeXeXeXeX",
"eXeXeXeXeXeXeXeXeXeXeXeXeXeXeXeXeXeXeXeXeXeXeXeXeXeXeXeXeX}.] ;.d.T.J.s.;.*.*.d.b.v.Z.s.g 5 k.:XeXeXeXeXeXeXeXeXeXeXeXeXeXeXeXeX",
"eXeXeXeXeXeXeXeXeXeXeXeXeXeXeXeXeXeXeXeXeXeXeXeXeXeXeXeXeXz...o.| F.-.' o.o.{ &.S.e.h.b.h.e <XeXeXeXeXeXeXeXeXeXeXeXeXeXeXeXeXeX",
"eXeXeXeXeXeXeXeXeXeXeXeXeXeXeXeXeXeXeXeXeXeXeXeXeXeXeXeXeX@X, % , h.r $ % $ < 1.I.P.h.,.,.8 @XeXeXeXeXeXeXeXeXeXeXeXeXeXeXeXeXeX",
"eXeXeXeXeXeXeXeXeXeXeXeXeXeXeXeXeXeXeXeXeXeXeXeXeXeXeXeXeX=Xh 7 w y.r.t X r 1.Z.Q.T.,.;.%.r J 3XeXeXeXeXeXeXeXeXeXeXeXeXeXeXeXeX",
"eXeXeXeXeXeXeXeXeXeXeXeXeXeXeXeXeXeXeXeXeXeXeXeXeXeXeXeXeX;X>.,.Q.oXT.I.4.*.7.K.R.U.7.1.%.6.;.l.<XeXeXeXeXeXeXeXeXeXeXeXeXeXeXeX",
"eXeXeXeXeXeXeXeXeXeXeXeXeXeXeXeXeXeXeXeXeXeXeXeXeXeXeXeXeX.X>.d d.v.7.v.4.h.b.6.:.h.F.,.;.e.L.h.p.+X0XeXeXeXeXeXeXeXeXeXeXeXeXeX",
"eXeXeXeXeXeXeXeXeXeXeXeXeXeXeXeXeXeXeXeXeXeXeXeXeXeXeXeXeXl.= * * 1 2 %., -.,.| O.+.@.| <.v.U.!.J.y.z.=XeXeXeXeXeXeXeXeXeXeXeXeX",
"eXeXeXeXeXeXeXeXeXeXeXeXeXeXeXeXeXeXeXeXeXeXeXeXeXeXeXqXXXe ' O.o.o.o.....% ] 0.0.0.0.0.{ v.U.R.!.Q.F.y.].3XeXeXeXeXeXeXeXeXeXeX",
"eXeXeXeXeXeXeXeXeXeXeXeXeXeXeXeXeXeXeXeXeXeXeXeXeXeX7X].h ` 0.0.....0.0.0.0.] ..0.0.0.0.| 7.Q.Q.Q.Q.Q.U.g.p.:XeXeXeXeXeXeXeXeXeX",
"eXeXeXeXeXeXeXeXeXeXeXeXeXeXeXeXeXeXeXeXeXeXeXeXeX4Xz.f.*.0.0...] $ ] { 0.0.o.] 0.0.0.0.` 6.U.Q.Q.Q.Q.Q.Q.h.p.6XeXeXeXeXeXeXeXeX",
"eXeXeXeXeXeXeXeXeXeXeXeXeXeXeXeXeXeXeXeXeXeXeXeX0XC.h.t.] ` & * ' .._ = % ` X.] | 0.0.0.` :.U.Q.Q.Q.Q.Q.Q.Q.s.{.eXeXeXeXeXeXeXeX",
"eXeXeXeXeXeXeXeXeXeXeXeXeXeXeXeXeXeXeXeXeXeXeXeX@Xg.F.+ o * { O.0.0.0.X.] = = * * +.0.0.* :.U.Q.Q.Q.Q.Q.Q.Q.H.F 1XeXeXeXeXeXeXeX",
"eXeXeXeXeXeXeXeXeXeXeXeXeXeXeXeXeXeXeXeXeXeXeXwXz.J.y.* X.+.0.0.0.0.0.0.0.o.` $ o o.0.o.% 1.U.Q.Q.Q.Q.Q.Q.Q.L.=.+XeXeXeXeXeXeXeX",
"eXeXeXeXeXeXeX+X).}.=X7XeXeXeXeXeXeXeXeXeXeXeX3Xa.T.,...0.0.0.0.0.0.0.0.0.0.0.o.` o.0...; 8.Q.L.R.Q.Q.Q.Q.Q.L.&..XeXeXeXeXeXeXeX",
"eXeXeXeXeXeXXXH ^ W H J ).;XwXeXeXeXeXeXeXeXeX=Xg.Q.,...0.0.0.0.0.0.0.0.0.0.0.0.+.0.+.* y A.I.v.U.Q.Q.Q.!.R.v.d XXeXeXeXeXeXeXeX",
"eXeXeXeXeX&XH ^.^.) ) ( W H k.&XeXeXeXeXeXeXeX=Xg.!.f.] 0.0.0.0.0.0.0.0.0.0.0.0.0.0.{ $ :.L.K.,.L.Q.Q.Q.!.L.7.h :XeXeXeXeXeXeXeX",
"eXeXeXeX=XH ^.^.~ / / / / ^.Y I 0XeXeXeXeXeXeX:Xr.J.D.t [ 0.0.0.0.0.0.0.0.0.0.0.+.{ % &.A.R.I.*.6.U.Q.Q.I.e.*.s ;XeXeXeXeXeXeXeX",
"eXqX{.l.J ( ^.) / / / / / / U H 7XeXeXeXeXeXeX3Xr.J.h.s.> [ o.0.0.0.0.0.0.0.0.X.[ % d 9.L.Q.U.6.d e.U.Q.K.v.7.:.N.eXeXeXeXeXeXeX",
"eX+Xe o Q /./ ) / / / / / / T D 6XeXeXeXeXeXeX.Xg.!.y.h.6.2 % _ { ..X.....' ] % ; &.9.P.Q.R.I.6.%.S.Q.Q.Q.U.S.7.r.3XeXeXeXeXeXeX",
"eXc.o 8 Y C U E ~ / / / / ^.T D 4XeXeXeXeXeXwXc.D.!.h.,.I.Z.6.%.2 , , % , 2 t ;.9.S.R.Q.I.S.S.&.:.I.!.Q.!.!.U.9.;.+XeXeXeXeXeXeX",
"eXx.X 9 5 5 9 v V R ! ~ / / T N &X0XeXeX=X}.].F J.!.G.e d.Z.L.L.b.v.v.v.9.A.S.I.R.Q.Q.Q.S.G.6.@ <.h.s.y.y.h.D.,.1.[.eXeXeXeXeXeX",
"eX&X0 V V B v q 9 q v U E ! T 5 e J ).}.g f.g.r m.!.H.r r ,.F.Q.!.!.Q.U.A.A.I.Q.Q.Q.Q.U.D.3.s O 7 q v M N H A e ;.C.eXeXeXeXeXeX",
"eX$Xq V C C U V V v 0 9 0 v V 5 < 2 : - X ;.4.>.>.H.e.%.r d -.6.g.h.f.6.;.*.;.3.3.3.-.=.y : -     . c 9 b B C Z w k.eXeXeXeXeXeX",
"eX{.b C C C C C C C C V M 9 5 3 ; y u < e e d ;.o > d < 1  . . . . .*.|  . .@.#.#.$.$.$.q.w.y . . V E W ~ W b 9 q H 7XeXeXeXeXeX",
"eX^ n C C C C C C C C C C C M 5 A g > @ ,.>.@ >.s o o X O y }  .$.q.w.w.w.w.w.w.w.w.w.w.q.q.> n U / / ^._.`.) M   m <XeXeXeXeXeX",
"6XH B C C C C C C C C C C C V D <X3X].t.G.&.d s.,.e d.>.o y y : ; , y | @.$.$.$.$.$.#.#.@. .4 B U / / ^._.`.(.! n D 6XeXeXeXeXeX",
":XN C C C C C C C C C C C C B H 8XeX{.,.H.d F.I.7.s 3.:.@ y y y 2 2 2 > o @ ; - - - # e # 4 6 C R / / ^.`._.^.! B Q wXeXeXeXeXeX",
";XN V C C C C C C C C C C C v x.eXeXk.7 d e J.L.:.3.I.6.O # # y 2 2 u u u y : o O O 4 i j a p C E / ^.^.`._.) E v {.eXeXeXeXeXeX",
"7Xk.q b V C C C C C C C C C v XXeXeX|.q V m g &.r h.H.&.i K a i 8 O @ : 2 u } u u 2 : > # X b C E / / ^.`.(./ U q &XeXeXeXeXeXeX",
"eX7X}.J m c M B C C C C C V m <XeXeX4XD Y (.^ M 0 s d 3 p K L L K S i 4 7 # > 2 u } u u 2 + p b C ! / ^.^.^.~ C D 4XeXeXeXeXeXeX",
"eXeXeX0X;X.Xx.D m v n V V q ).eXeXeXeX=XQ W (.^.W B n n   j K L K K a i 6 4 8 3 X + @ : u # h k g w M T ! ! E b I 6XeXeXeXeXeXeX",
"eXeXeXeXeXeXeX5X&X}.k.H D c.6XeXeXeXeXeX7X.Xj.D Y U C v 3 i a a a a S a 4 I &X&XA 5 6 3 X 7 G.I.H.D.3.w v U C q 7 F k.|.=X6XeXeX",
"eXeXeXeXeXeXeXeXeXeXeX7X4XqXeXeXeXeXeXeXeXeX7X+Xk.D p I ).5 5 6 6 6 6 4 w ;XeXeXXX6 4 4 4 O m.A.f.!.R.D.h q M 3 2 2 ; @ 8 h .XeX",
"eXeXeXeXeXeXeXeXeXeXeXeXeXeXeXeXeXeXeXeXeXeXeXeXwX3X>X9X<XA z l l l x f G 7XeXeX4Xp l 5.5.k s s ,.I.S.f.P.6.3 + 2 u u } 2 ; p.wX",
"eXeXeXeXeXeXeXeXeXeXeXeXeXeXeXeXeXeXeXeXeXeXeXeXeXeXeXeX7XI z 2.5.x x f G 6XeXeX6Xj.j k x x f O + >.h >.L.f.F c.p.h > , 2 ; c.eX",
"eXeXeXeXeXeXeXeXeXeXeXeXeXeXeXeXeXeXeXeXeXeXeXeXeXeX3X}.N.F O s x x f 4 |.eXeXeXeX=XI O # i f f p XX=XJ >.h +XeXwX4X+XN.J A &XeX",
"eXeXeXeXeXeXeXeXeXeXeXeXeXeXeXeXeXeXeXeXeXeXeXeXeX5Xl.2.5.u.u.2.n.n.u.j <XqXqXqX@XG z 5.u.u.2.k j ;XeX8X=X>XeXeXeXeXeXeX9X6XeXeX",
"eXeXeXeXeXeXeXeXeXeXeXeXeXeXeXeXeXeXeXeXeXqX8X5X2X}.i l z z 2.2.x l j i XX%X%X#Xj s 2.z z z z j i OX8X0XeXeXeXeXeXeXeXeXeXeXeXeX",
"eXeXeXeXeXeXeXeXeXeXeXeXeXeXeXeXeXeXeXqX1X%X#X#X#X[.G G G G L G K S S I OX#X%XOXj.I J L J G G G I .X#X%X:X9XeXeXeXeXeXeXeXeXeXeX",
"eXeXeXeXeXeXeXeXeXeXeXeXeXeXeXeXeXeXeXeX7X,X;X-X%X%X#X#X#X@XOX#X#XOXOX#X#X#X#X#X#X#XOX#X#X#X#X#X%X*X-X,X5XqXeXeXeXeXeXeXeXeXeXeX",
"eXeXeXeXeXeXeXeXeXeXeXeXeXeXeXeXeXeXeXeXeXeXeXqXqX9X8X5X5X2X2X1X1X1X,X,X1X1X,X1X1X1X2X5X5X5X8X8X9XqXeXeXeXeXeXeXeXeXeXeXeXeXeXeX",
"eXeXeXeXeXeXeXeXeXeXeXeXeXeXeXeXeXeXeXeXeXeXeXeXeXeXeXeXeXeXeXeXeXeXeXeXqXeXeXqXeXeXeXeXeXeXeXeXeXeXeXeXeXeXeXeXeXeXeXeXeXeXeXeX",
"eXeXeXeXeXeXeXeXeXeXeXeXeXeXeXeXeXeXeXeXeXeXeXeXeXeXeXeXeXeXeXeXeXeXeXeXeXeXeXeXeXeXeXeXeXeXeXeXeXeXeXeXeXeXeXeXeXeXeXeXeXeXeXeX",
"eXeXeXeXeXeXeXeXeXeXeXeXeXeXeXeXeXeXeXeXeXeXeXeXeXeXeXeXeXeXeXeXeXeXeXeXeXeXeXeXeXeXeXeXeXeXeXeXeXeXeXeXeXeXeXeXeXeXeXeXeXeXeXeX"
};
